<?xml version="1.0" standalone="no"?>
<!DOCTYPE svg PUBLIC "-//W3C//DTD SVG 20010904//EN"
 "http://www.w3.org/TR/2001/REC-SVG-20010904/DTD/svg10.dtd">
<svg version="1.0" xmlns="http://www.w3.org/2000/svg"
 width="64.000000pt" height="64.000000pt" viewBox="0 0 64.000000 64.000000"
 preserveAspectRatio="xMidYMid meet">

<g transform="translate(0.000000,64.000000) scale(0.100000,-0.100000)"
fill="#000000" stroke="none">
<path d="M12 628 c-7 -7 -12 -39 -12 -75 0 -80 19 -103 85 -103 l45 0 0 -50 0
-49 -62 -3 c-60 -3 -63 -4 -63 -28 0 -24 3 -25 63 -28 l62 -3 0 -49 0 -50 -45
0 c-66 0 -85 -23 -85 -104 0 -44 5 -67 15 -76 26 -21 45 -4 45 40 0 54 15 80
45 80 23 0 25 -4 25 -45 0 -32 6 -51 20 -65 18 -18 33 -20 170 -20 137 0 152
2 170 20 14 14 20 33 20 65 0 41 2 45 25 45 30 0 45 -26 45 -80 0 -44 19 -61
45 -40 19 16 21 129 2 154 -9 12 -31 20 -65 24 l-52 5 0 48 0 48 63 3 c59 3
62 4 62 28 0 24 -3 25 -62 28 l-63 3 0 49 0 50 45 0 c66 0 85 23 85 104 0 44
-5 67 -15 76 -26 21 -45 4 -45 -40 0 -54 -15 -80 -45 -80 -23 0 -25 4 -25 45
0 32 -6 51 -20 65 -18 18 -33 20 -170 20 -137 0 -152 -2 -170 -20 -14 -14 -20
-33 -20 -65 0 -41 -2 -45 -24 -45 -31 0 -39 13 -46 75 -5 52 -23 68 -48 43z
m419 -58 c18 -10 19 -24 19 -250 0 -281 10 -260 -130 -260 -140 0 -130 -21
-130 260 0 217 2 240 18 249 22 14 198 14 223 1z"/>
<path d="M230 175 c-10 -12 -10 -18 0 -30 7 -8 18 -15 25 -15 19 0 36 25 29
44 -8 20 -38 21 -54 1z"/>
<path d="M356 174 c-7 -19 10 -44 30 -44 20 0 36 34 22 48 -17 17 -45 15 -52
-4z"/>
</g>
</svg>